<?xml version="1.0" standalone="no"?>
<!DOCTYPE svg PUBLIC "-//W3C//DTD SVG 20010904//EN"
 "http://www.w3.org/TR/2001/REC-SVG-20010904/DTD/svg10.dtd">
<svg version="1.0" xmlns="http://www.w3.org/2000/svg"
 width="512.000000pt" height="512.000000pt" viewBox="0 0 512.000000 512.000000"
 preserveAspectRatio="xMidYMid meet">
<metadata>
Created by potrace 1.11, written by Peter Selinger 2001-2013
</metadata>
<g transform="translate(0.000000,512.000000) scale(0.100000,-0.100000)"
fill="#000000" stroke="none">
<path d="M0 2560 l0 -2560 2560 0 2560 0 0 2560 0 2560 -2560 0 -2560 0 0
-2560z m1600 1166 c332 -59 533 -209 595 -442 21 -78 21 -250 0 -328 -39 -149
-137 -260 -298 -340 -82 -41 -259 -96 -308 -96 -11 0 -19 -3 -19 -6 0 -15 776
-958 818 -993 49 -43 118 -74 190 -86 40 -6 42 -9 42 -41 l0 -34 -289 0 -290
0 -428 554 -428 555 -65 0 c-36 1 -82 -2 -102 -5 l-38 -7 0 -381 c0 -218 5
-409 11 -446 21 -134 61 -162 277 -195 41 -7 43 -8 40 -38 l-3 -32 -500 0
-500 0 -3 32 c-3 31 -2 32 45 38 81 11 184 45 208 69 50 50 50 44 50 1061 l0
950 -23 46 c-28 58 -77 86 -180 105 -42 7 -83 13 -89 14 -14 0 -18 52 -6 64 5
4 276 6 603 3 503 -3 610 -6 690 -21z m2128 -13 l3 -31 -68 -7 c-91 -10 -184
-40 -211 -67 -11 -13 -29 -41 -39 -63 -17 -37 -18 -100 -21 -978 -2 -641 1
-950 8 -977 19 -70 37 -74 320 -78 345 -5 562 19 680 75 101 48 197 162 312
372 15 28 22 31 63 31 42 0 45 -2 40 -22 -4 -13 -43 -153 -88 -313 l-82 -290
-968 -3 -967 -2 0 34 c0 33 3 36 38 42 169 29 221 53 248 117 18 40 19 92 22
962 3 948 1 1004 -36 1068 -23 38 -101 73 -194 88 l-78 12 0 33 0 34 508 -2
507 -3 3 -32z"/>
<path d="M1075 3604 c-11 -3 -30 -7 -43 -10 -50 -10 -52 -36 -52 -534 l0 -460
43 0 c80 0 272 21 372 41 281 55 425 218 425 478 0 246 -119 400 -357 462 -76
20 -339 35 -388 23z"/>
</g>
</svg>
